<?xml version="1.0" standalone="no"?>
<!DOCTYPE svg PUBLIC "-//W3C//DTD SVG 20010904//EN"
 "http://www.w3.org/TR/2001/REC-SVG-20010904/DTD/svg10.dtd">
<svg version="1.0" xmlns="http://www.w3.org/2000/svg"
 width="480.000000pt" height="480.000000pt" viewBox="0 0 480.000000 480.000000"
 preserveAspectRatio="xMidYMid meet">
<metadata>
Created by potrace 1.11, written by Peter Selinger 2001-2013
</metadata>
<g transform="translate(0.000000,480.000000) scale(0.100000,-0.100000)"
fill="#000000" stroke="none">
<path d="M2065 4784 c-109 -16 -245 -47 -340 -76 -38 -12 -73 -23 -77 -24 -5
-1 -9 -2 -10 -4 -2 -1 -10 -3 -18 -5 -8 -2 -28 -8 -45 -15 -16 -6 -31 -11 -32
-11 -4 0 -114 -48 -173 -77 -338 -161 -668 -435 -887 -735 -29 -40 -56 -76
-61 -82 -4 -5 -17 -26 -28 -45 -10 -19 -22 -37 -25 -40 -14 -12 -149 -268
-176 -335 -38 -95 -57 -145 -70 -190 -8 -27 -17 -57 -20 -65 -3 -8 -7 -19 -8
-25 -34 -138 -46 -191 -55 -245 -6 -36 -13 -76 -15 -90 -13 -76 -20 -194 -20
-350 1 -220 11 -318 55 -515 11 -49 23 -101 25 -115 31 -147 183 -495 280
-644 25 -37 45 -70 45 -72 0 -8 107 -150 166 -221 66 -78 205 -217 283 -283
30 -25 59 -51 67 -58 24 -23 290 -197 340 -222 27 -14 52 -29 55 -33 3 -5 8
-8 10 -8 13 2 49 -13 49 -20 0 -5 3 -8 8 -7 4 1 18 -3 32 -9 179 -75 260 -103
394 -138 l100 -25 492 0 493 1 108 30 c59 16 125 36 146 44 20 8 38 15 40 14
4 -1 39 12 125 48 132 53 370 182 380 206 2 4 8 7 13 7 8 0 107 67 119 80 3 3
20 17 39 30 69 48 285 255 354 340 20 25 41 50 47 57 6 7 33 43 60 80 27 37
53 73 58 78 4 6 11 17 15 25 4 8 21 35 37 60 30 46 155 290 177 345 6 17 18
47 27 68 8 20 13 37 11 37 -2 0 2 12 10 27 8 15 12 30 9 35 -3 4 0 8 7 8 7 0
10 3 6 6 -3 4 0 22 8 40 8 19 12 34 10 34 -3 0 0 12 6 28 6 15 13 38 15 52 3
14 9 41 14 60 5 19 16 76 24 125 8 50 18 106 21 125 11 61 14 442 4 530 -5 47
-16 121 -24 165 -8 44 -17 94 -19 110 -3 17 -13 55 -21 85 -15 52 -19 70 -29
115 -3 11 -18 56 -34 100 -129 352 -305 634 -560 893 -240 244 -487 412 -807
545 -60 25 -218 79 -232 79 -4 0 -19 5 -33 10 -30 12 -29 12 -160 37 -58 12
-134 25 -170 30 -101 14 -531 11 -635 -5z m475 -99 c58 -3 119 -7 135 -10 17
-2 48 -7 70 -10 22 -3 51 -7 65 -10 14 -3 36 -8 50 -10 56 -11 72 -15 147 -35
74 -21 160 -50 211 -71 12 -5 32 -13 45 -18 72 -30 230 -109 275 -137 29 -19
54 -34 57 -34 12 0 217 -150 289 -212 6 -5 -2 -20 -19 -38 -31 -32 -31 -32
-125 -15 -8 2 -44 6 -80 10 l-64 7 -38 -43 c-21 -24 -38 -46 -38 -49 0 -3 17
-6 38 -6 20 -1 64 -4 97 -7 33 -3 66 -6 73 -6 21 -2 13 -22 -26 -65 -20 -22
-48 -54 -60 -71 -23 -29 -27 -30 -105 -31 -186 -4 -169 0 -199 -50 -29 -47
-36 -70 -18 -59 6 4 58 8 115 9 83 3 105 0 105 -10 0 -8 -5 -14 -10 -14 -6 0
-14 -8 -17 -17 -10 -27 -73 -123 -81 -124 -4 -1 -18 -2 -32 -4 -95 -11 -146
-19 -192 -32 -10 -2 -27 -25 -38 -50 -23 -52 -25 -67 -8 -57 7 4 21 9 33 10
11 1 34 5 50 9 17 3 54 9 84 12 l53 6 -15 -29 c-28 -54 -57 -123 -57 -133 0
-9 -51 -28 -85 -32 -5 0 -26 -7 -45 -15 -19 -8 -35 -14 -35 -13 0 0 -18 -4
-41 -10 -37 -10 -41 -15 -57 -63 -9 -28 -14 -54 -12 -56 2 -3 53 11 112 31 59
20 109 35 110 33 1 -1 -2 -16 -7 -32 -6 -16 -18 -56 -28 -89 -20 -66 -16 -62
-165 -129 -79 -36 -83 -40 -90 -91 -3 -16 -6 -34 -7 -40 -1 -5 -2 -13 -1 -17
1 -6 124 49 184 83 11 6 21 8 24 5 8 -8 -21 -179 -32 -189 -5 -5 -54 -35 -107
-68 l-98 -60 0 -61 0 -60 23 16 c12 9 56 38 97 66 l75 51 3 -83 c2 -46 0 -92
-3 -103 -3 -11 -31 -39 -63 -63 -108 -81 -125 -101 -123 -141 2 -48 7 -76 13
-76 2 0 42 35 89 77 46 42 84 76 85 75 3 -2 10 -56 19 -139 l6 -57 -63 -67
c-35 -37 -68 -72 -74 -78 -26 -28 -31 -49 -21 -97 5 -27 13 -49 17 -49 4 0 27
24 51 52 24 29 60 68 79 88 l35 35 3 -25 c2 -14 12 -58 22 -98 l18 -73 -22
-27 c-13 -15 -46 -60 -74 -100 l-51 -74 20 -51 c12 -29 22 -53 24 -55 2 -2 31
40 65 92 34 53 65 96 69 96 3 0 21 -40 39 -88 l33 -89 -57 -108 -57 -108 28
-55 29 -55 49 107 c28 58 53 106 57 106 5 0 22 -26 38 -57 17 -32 41 -76 53
-99 l23 -41 -36 -99 c-20 -54 -39 -106 -42 -114 -7 -17 49 -110 65 -110 5 0 8
3 7 8 0 4 1 14 5 22 3 8 18 54 33 103 15 48 30 87 34 87 4 0 16 -12 25 -27 10
-16 36 -49 57 -75 l39 -47 -17 -63 c-19 -76 -22 -90 -30 -148 -5 -43 -3 -47
35 -85 23 -21 42 -37 42 -35 1 3 3 14 4 25 5 37 15 100 22 130 6 28 10 56 12
80 1 10 151 -135 151 -145 0 -3 -21 -22 -48 -42 -26 -20 -58 -46 -72 -58 -51
-45 -227 -155 -344 -215 -111 -58 -304 -137 -333 -138 -7 0 -13 -3 -13 -7 0
-3 -8 -6 -17 -7 -10 0 -62 -12 -116 -26 -55 -15 -115 -29 -136 -32 -20 -3 -48
-8 -61 -10 -75 -15 -166 -20 -350 -20 -224 0 -303 7 -460 40 -14 3 -36 8 -50
10 -14 2 -46 11 -72 19 -27 8 -48 13 -48 10 0 -3 -6 -2 -12 3 -7 4 -17 8 -23
9 -66 12 -435 174 -443 195 -2 5 -8 9 -13 9 -24 0 -240 149 -348 240 l-24 21
29 30 c20 21 35 28 50 25 30 -8 80 -15 141 -20 29 -2 56 -7 62 -10 5 -3 23 9
41 27 35 36 55 67 43 68 -62 4 -133 11 -153 14 -14 2 -36 4 -48 4 -23 1 -21 4
20 52 23 28 54 65 68 82 l25 32 123 1 c108 1 124 3 137 20 22 28 47 75 42 80
-5 6 -39 5 -139 -1 -49 -3 -88 -4 -88 -1 0 2 19 34 43 69 23 36 47 73 52 82 6
9 29 18 60 21 171 17 186 22 213 78 13 27 21 50 18 53 -2 3 -29 0 -58 -6 -30
-7 -66 -14 -81 -16 -15 -3 -38 -7 -52 -9 -13 -3 -26 -2 -29 2 -2 4 15 45 38
92 37 76 44 85 76 93 19 4 71 19 115 33 l81 25 18 50 c9 28 15 53 13 56 -3 3
-41 -7 -84 -22 -43 -15 -91 -29 -106 -32 -28 -4 -29 -3 -22 29 4 18 12 39 17
46 6 6 8 12 5 12 -3 0 1 19 8 43 13 46 13 46 151 108 50 22 91 46 91 52 1 7 4
33 8 59 l8 47 -102 -51 c-56 -28 -104 -48 -107 -45 -3 3 1 45 8 93 13 82 16
90 45 109 17 11 65 42 107 68 l76 48 0 60 0 59 -77 -53 c-43 -30 -88 -60 -101
-66 l-23 -12 2 96 3 97 93 76 c51 42 93 83 94 91 2 31 -3 96 -8 104 -2 4 -28
-15 -56 -42 -72 -67 -117 -104 -122 -99 -3 2 -7 24 -10 49 -3 24 -8 65 -11 91
-5 47 -5 47 55 108 34 34 73 76 86 95 24 31 25 36 14 81 -7 27 -14 51 -16 54
-2 2 -14 -7 -26 -22 -93 -108 -130 -148 -134 -144 -8 7 -43 157 -43 181 0 13
3 25 8 27 7 3 57 70 105 141 l26 38 -20 52 c-11 29 -22 53 -23 55 -2 1 -31
-41 -66 -95 -58 -91 -63 -96 -76 -78 -8 10 -14 24 -14 31 0 6 -11 37 -25 69
l-26 57 28 52 c15 28 40 77 57 110 l29 58 -27 55 -27 55 -52 -106 c-31 -62
-56 -103 -62 -98 -5 4 -23 32 -40 62 -16 30 -38 71 -48 90 l-20 35 42 113 c44
121 45 121 -3 185 -22 30 -36 35 -36 12 0 -27 -61 -206 -69 -203 -8 3 -98 117
-114 144 -3 6 -2 26 4 45 5 19 18 73 28 120 l18 87 -40 41 c-22 23 -41 40 -43
39 -3 -3 -6 -19 -18 -98 -3 -19 -8 -48 -12 -65 -3 -16 -7 -37 -8 -44 -2 -8 -7
-16 -12 -18 -15 -5 -144 131 -136 142 23 33 289 225 311 225 6 0 11 3 11 8 0
4 10 12 23 18 12 6 48 25 80 43 31 18 57 28 57 24 0 -4 4 -3 8 3 7 11 210 101
241 108 9 2 23 5 31 9 18 6 42 14 52 16 4 1 27 8 50 17 23 8 55 17 72 20 17 2
39 7 48 10 21 6 54 13 98 20 19 3 49 8 65 11 50 8 94 12 220 19 66 3 122 7
123 9 2 2 9 2 15 0 7 -2 59 -7 117 -10z m-1624 -690 c36 -37 65 -68 62 -70 -2
-2 -19 -7 -38 -10 -103 -17 -156 -29 -163 -35 -5 -5 4 -22 19 -40 30 -33 46
-35 159 -16 105 18 101 20 160 -56 30 -39 55 -74 55 -78 0 -5 -26 -8 -57 -9
-111 -1 -163 -4 -163 -10 0 -3 12 -22 26 -43 l26 -37 115 1 c86 1 117 -2 128
-13 12 -13 105 -176 105 -186 0 -2 -19 -1 -42 1 -98 12 -188 17 -188 11 0 -12
40 -85 48 -86 4 -1 25 -3 47 -4 22 -2 40 -4 40 -5 0 -1 11 -3 25 -5 44 -5 115
-17 118 -20 8 -8 62 -149 62 -162 0 -10 -6 -13 -17 -8 -21 7 -122 31 -171 40
-31 5 -33 4 -26 -17 20 -66 28 -72 138 -101 58 -16 109 -34 114 -40 6 -7 18
-45 27 -85 15 -61 16 -75 5 -82 -8 -5 -22 -3 -34 5 -18 11 -91 38 -106 38 -3
1 -16 6 -29 13 -35 18 -41 10 -26 -38 13 -45 18 -49 110 -88 85 -36 114 -52
119 -67 3 -8 9 -50 12 -94 5 -74 4 -79 -13 -72 -10 3 -20 9 -23 12 -12 14
-151 82 -158 77 -4 -2 -7 -17 -6 -33 1 -15 3 -33 3 -40 1 -6 40 -35 89 -64
126 -76 120 -66 118 -164 -1 -46 -5 -87 -8 -91 -4 -3 -22 5 -40 20 -50 40 -50
40 -93 69 -22 15 -44 27 -50 27 -8 0 -12 -59 -6 -91 0 -3 22 -20 47 -38 25
-18 62 -48 82 -67 20 -19 41 -34 45 -34 8 0 7 -20 -8 -115 -4 -22 -8 -44 -8
-50 -5 -27 -24 -17 -85 42 -83 81 -102 92 -103 61 0 -13 -2 -34 -5 -48 -3 -20
12 -41 76 -108 44 -46 80 -89 80 -97 0 -8 -12 -51 -26 -97 -24 -76 -27 -81
-40 -63 -45 61 -129 165 -134 165 -3 0 -12 -22 -19 -50 -13 -49 -12 -50 18
-82 17 -18 31 -38 31 -45 0 -6 4 -13 8 -15 5 -1 22 -23 39 -48 l31 -46 -25
-54 c-13 -30 -29 -67 -36 -82 -6 -16 -15 -28 -18 -28 -4 0 -26 33 -48 72 -23
40 -49 84 -60 98 l-19 24 -18 -44 c-10 -25 -17 -49 -16 -53 1 -4 25 -48 53
-98 58 -104 58 -108 -2 -198 -39 -59 -59 -75 -59 -49 0 19 -73 188 -81 188 -4
0 -17 -16 -30 -36 -24 -40 -25 -34 30 -181 29 -77 29 -82 13 -101 -9 -12 -27
-34 -39 -49 -49 -63 -83 -94 -88 -81 -2 7 -14 51 -26 98 -32 126 -33 127 -70
85 -25 -28 -30 -41 -25 -63 3 -15 9 -38 11 -52 3 -14 8 -32 11 -40 3 -8 10
-37 15 -64 7 -39 6 -54 -6 -72 -31 -47 -50 -41 -129 43 -40 43 -86 94 -102
113 -16 19 -31 37 -34 40 -12 10 -126 176 -166 240 -60 96 -127 231 -174 350
-39 99 -101 299 -113 365 -37 205 -50 329 -50 500 0 96 9 248 17 290 2 11 7
40 10 65 3 25 8 56 11 70 3 14 8 39 11 55 22 126 125 424 185 534 16 30 29 60
29 67 0 7 3 14 8 16 4 2 18 23 31 48 35 65 136 214 200 295 80 102 206 235
222 235 5 0 38 -29 75 -65z m3105 13 c160 -161 342 -417 428 -603 103 -220
187 -484 206 -645 2 -14 5 -38 8 -55 27 -144 27 -521 1 -647 -4 -20 -9 -53
-19 -123 -12 -85 -95 -354 -141 -460 -10 -22 -18 -42 -19 -45 -3 -13 -87 -176
-123 -236 -48 -83 -135 -205 -208 -294 -76 -93 -179 -200 -191 -200 -13 0
-146 131 -140 137 5 4 38 10 102 18 17 2 31 5 33 6 1 1 5 2 10 3 4 1 22 6 40
10 l32 8 -32 35 c-35 36 -38 37 -138 19 -14 -3 -49 -6 -79 -8 l-54 -3 -53 70
c-30 38 -54 73 -54 76 0 5 114 11 192 10 24 0 32 16 16 33 -7 8 -20 23 -29 34
-15 18 -28 20 -129 18 -128 -1 -118 -7 -179 105 -49 92 -51 103 -13 94 35 -7
192 -15 192 -10 0 3 -9 23 -21 45 -14 27 -28 40 -43 41 -11 0 -28 2 -36 3 -8
2 -38 6 -65 9 -116 14 -111 11 -145 98 -16 43 -30 83 -30 88 0 5 33 1 73 -9
39 -10 89 -21 110 -25 37 -6 38 -5 32 17 -22 71 -36 79 -219 123 -10 2 -24 9
-31 15 -11 9 -51 167 -43 175 3 3 121 -40 150 -56 10 -5 28 -9 41 -9 24 0 24
1 14 46 -6 26 -18 48 -26 51 -17 5 -36 13 -86 33 -16 6 -31 11 -32 11 -13 -4
-87 51 -89 65 -1 10 -5 52 -9 92 l-7 74 106 -57 106 -57 -6 44 c-3 24 -7 48
-9 54 -1 6 -44 34 -94 63 -50 29 -95 60 -100 69 -8 18 -7 169 2 178 3 3 45
-24 93 -60 49 -36 90 -63 93 -61 2 3 5 25 6 50 3 45 3 45 -69 99 -39 30 -81
65 -94 78 -23 25 -23 34 -7 118 3 14 7 36 10 49 2 13 6 26 8 28 3 2 40 -30 83
-72 44 -41 82 -75 87 -75 4 0 8 8 8 18 1 9 3 31 5 47 3 26 -8 42 -77 114 -76
80 -79 85 -73 120 4 20 9 41 13 46 3 6 6 15 7 22 1 6 7 28 14 47 l12 36 65
-83 c37 -45 71 -85 77 -89 7 -5 16 9 25 36 l14 44 -67 92 c-36 51 -66 99 -66
107 0 17 66 163 74 163 3 0 15 -17 26 -37 24 -44 58 -100 81 -134 l16 -24 22
48 c22 47 22 48 3 75 -26 37 -76 135 -74 145 1 4 -2 7 -8 7 -21 0 -8 39 36
108 46 72 64 87 64 54 0 -10 4 -22 8 -28 5 -5 22 -42 38 -81 16 -40 32 -73 36
-73 4 0 18 16 32 36 l24 36 -20 51 c-11 29 -24 61 -28 72 -4 11 -14 37 -23 57
l-16 37 36 48 c19 26 51 65 71 85 l35 37 23 -87 c12 -48 27 -100 33 -115 l11
-28 32 36 32 37 -23 96 c-12 53 -24 107 -27 119 -4 21 35 73 56 73 4 0 32 -24
61 -52z"/>
</g>
</svg>
